<svg id="Layer_1" height="512" viewBox="0 0 512 512" width="512" xmlns="http://www.w3.org/2000/svg" data-name="Layer 1" fill="#9E7C2F"><path d="m256 6c-138.071 0-250 111.929-250 250s111.929 250 250 250 250-111.929 250-250-111.929-250-250-250zm-83.049 399.1h-63.945v-199.875h63.945zm-31.972-228.744a34.729 34.729 0 1 1 34.728-34.728 34.728 34.728 0 0 1 -34.728 34.728zm264.692 228.744h-62.748v-96.356c0-23.008-.473-52.424-32.676-52.424-32.676 0-37.649 24.938-37.649 50.726v98.054h-62.748v-197.962h60.3v27.023c15.3-15.921 37.373-31.965 60.3-31.965 63.616 0 75.3 41 75.3 94.2z"/></svg>